<?xml version="1.0" encoding="UTF-8" standalone="no"?>
<svg
   xmlns:dc="http://purl.org/dc/elements/1.1/"
   xmlns:cc="http://creativecommons.org/ns#"
   xmlns:rdf="http://www.w3.org/1999/02/22-rdf-syntax-ns#"
   xmlns:svg="http://www.w3.org/2000/svg"
   xmlns="http://www.w3.org/2000/svg"
   xmlns:xlink="http://www.w3.org/1999/xlink"
   xmlns:sodipodi="http://sodipodi.sourceforge.net/DTD/sodipodi-0.dtd"
   xmlns:inkscape="http://www.inkscape.org/namespaces/inkscape"
   version="1.0"
   width="1088.000000pt"
   height="1280.000000pt"
   viewBox="0 0 1088.000000 1280.000000"
   preserveAspectRatio="xMidYMid meet"
   id="svg8"
   sodipodi:docname="ItemDansSac.svg"
   inkscape:version="0.92.3 (2405546, 2018-03-11)">
  <defs
     id="defs12">
    <filter
       style="color-interpolation-filters:sRGB"
       id="g"
       x="-0.048"
       y="-0.048"
       width="1.096"
       height="1.096">
      <feGaussianBlur
         stdDeviation="22.503771"
         id="feGaussianBlur15" />
    </filter>
    <linearGradient
       id="h"
       x1="-1732.7"
       x2="67.269997"
       y1="-4572.6001"
       y2="-4572.6001"
       gradientTransform="matrix(-0.39458,-1.0871,-1.0871,0.39458,-4981.7,1472.4)"
       gradientUnits="userSpaceOnUse">
      <stop
         stop-color="#003079"
         offset="0"
         id="stop8" />
      <stop
         stop-color="#adceff"
         offset="1"
         id="stop10" />
    </linearGradient>
    <linearGradient
       id="k"
       x1="-1628.9"
       x2="81.827003"
       y1="-4269.7998"
       y2="-4269.7998"
       gradientTransform="matrix(0.39458,1.0871,-1.0871,0.39458,-4019.2,3099.2)"
       gradientUnits="userSpaceOnUse"
       xlink:href="#a" />
    <linearGradient
       id="a">
      <stop
         stop-color="#002a6a"
         offset="0"
         id="stop3" />
      <stop
         stop-color="#86afec"
         offset="1"
         id="stop5" />
    </linearGradient>
    <linearGradient
       id="i"
       x1="-1628.9"
       x2="81.827003"
       y1="-4269.7998"
       y2="-4269.7998"
       gradientTransform="matrix(-0.39458,-1.0871,1.0871,-0.39458,4654.9,-1952.4)"
       gradientUnits="userSpaceOnUse"
       xlink:href="#a" />
    <linearGradient
       id="j"
       x1="-1628.9"
       x2="81.827003"
       y1="-4269.7998"
       y2="-4269.7998"
       gradientTransform="matrix(0.39458,1.0871,-1.0871,0.39458,-4018.8,3099.2)"
       gradientUnits="userSpaceOnUse"
       xlink:href="#a" />
  </defs>
  <sodipodi:namedview
     pagecolor="#ffffff"
     bordercolor="#666666"
     borderopacity="1"
     objecttolerance="10"
     gridtolerance="10"
     guidetolerance="10"
     inkscape:pageopacity="0"
     inkscape:pageshadow="2"
     inkscape:window-width="1808"
     inkscape:window-height="1008"
     id="namedview10"
     showgrid="false"
     inkscape:zoom="0.13828125"
     inkscape:cx="739.79661"
     inkscape:cy="853.33333"
     inkscape:window-x="0"
     inkscape:window-y="0"
     inkscape:window-maximized="1"
     inkscape:current-layer="svg8" />
  <metadata
     id="metadata2">
Created by potrace 1.15, written by Peter Selinger 2001-2017
<rdf:RDF>
  <cc:Work
     rdf:about="">
    <dc:format>image/svg+xml</dc:format>
    <dc:type
       rdf:resource="http://purl.org/dc/dcmitype/StillImage" />
    <dc:title></dc:title>
  </cc:Work>
</rdf:RDF>
</metadata>
  <g
     transform="translate(0.000000,1280.000000) scale(0.100000,-0.100000)"
     fill="#8bc34a"
     stroke="none"
     id="g6">
    <path
       d="M6300 12784 c-102 -22 -176 -56 -437 -200 -388 -216 -535 -281 -683 -305 -139 -22 -241 20 -396 162 -234 215 -398 289 -644 289 -262 0 -499 -105 -847 -377 -65 -51 -169 -133 -232 -182 -153 -120 -218 -155 -274 -146 -73 12 -147 35 -347 112 -358 137 -495 173 -667 173 -194 0 -327 -53 -459 -185 -66 -66 -89 -97 -128 -175 -25 -52 -58 -140 -73 -195 -24 -91 -26 -117 -27 -285 0 -169 3 -194 26 -282 79 -291 270 -542 585 -766 125 -89 310 -196 539 -310 366 -183 449 -213 624 -227 182 -15 380 23 763 144 306 98 366 113 436 115 l55 1 14 -45 c38 -118 20 -573 -28 -749 -94 -337 -382 -612 -954 -911 -74 -39 -348 -175 -608 -301 -626 -304 -844 -422 -1125 -610 -502 -336 -859 -720 -1087 -1167 -169 -335 -246 -598 -308 -1062 -19 -140 -16 -666 6 -915 105 -1240 455 -2158 1091 -2866 716 -796 1781 -1272 3230 -1443 824 -98 1726 -98 2425 -1 1108 154 1993 507 2690 1074 140 113 435 409 544 546 94 119 265 371 338 500 278 491 446 1053 515 1720 21 212 24 769 5 945 -64 567 -194 1006 -425 1440 -277 518 -722 1015 -1302 1452 -186 140 -259 192 -465 328 -192 128 -284 187 -780 500 -663 419 -955 651 -1174 934 -75 97 -236 330 -236 342 0 5 97 10 215 11 340 3 503 32 786 142 227 87 313 110 728 196 402 83 584 176 831 424 255 256 351 450 337 684 -12 205 -115 367 -310 491 -181 116 -422 170 -752 170 -273 1 -466 -29 -711 -110 -76 -26 -119 -35 -138 -30 -30 8 -114 115 -197 253 -112 188 -185 301 -240 374 -200 264 -463 381 -729 323z"
       id="path4" />
  </g>
  <g
     id="g24"
     transform="matrix(0.35798841,0,0,0.34738935,431.27989,655.04608)"
     style="fill-rule:evenodd">
    <path
       transform="matrix(1.8191,0,0,1.8191,408.49,-535.86)"
       d="m 488.05,414.57 a 572.18,572.18 0 0 1 24.744,91.614 l -88.243,58.62 a 476.82,476.82 0 0 1 -6.0826,131.81 l 82.385,66 a 572.18,572.18 0 0 1 -79.915,171.66 l -103.71,-20.919 a 476.82,476.82 0 0 1 -97.315,88.917 l 11.598,105.03 a 572.18,572.18 0 0 1 -86.097,40.331 572.18,572.18 0 0 1 -91.615,24.742 l -58.619,-88.242 a 476.82,476.82 0 0 1 -131.81,-6.0826 l -66,82.384 a 572.18,572.18 0 0 1 -171.66,-79.915 l 20.919,-103.71 a 476.82,476.82 0 0 1 -88.917,-97.316 l -105.03,11.598 a 572.18,572.18 0 0 1 -40.331,-86.096 572.18,572.18 0 0 1 -24.743,-91.616 l 88.242,-58.619 a 476.82,476.82 0 0 1 6.0837,-131.81 l -82.386,-65.999 a 572.18,572.18 0 0 1 79.915,-171.66 l 103.71,20.919 a 476.82,476.82 0 0 1 97.314,-88.917 l -11.598,-105.03 a 572.18,572.18 0 0 1 86.096,-40.33 572.18,572.18 0 0 1 91.615,-24.744 l 58.62,88.243 a 476.82,476.82 0 0 1 131.81,6.0841 l 66,-82.386 a 572.18,572.18 0 0 1 171.66,79.915 l -20.919,103.71 a 476.82,476.82 0 0 1 88.915,97.313 l 105.04,-11.598 a 572.18,572.18 0 0 1 40.33,86.097 z m -268.93,97.608 a 286.09,286.09 0 0 0 -366.53,-171.32 286.09,286.09 0 0 0 -171.32,366.53 286.09,286.09 0 0 0 366.53,171.32 286.09,286.09 0 0 0 171.32,-366.53 z"
       id="path20"
       inkscape:connector-curvature="0"
       style="fill:#111c2c;fill-opacity:0.68666998;filter:url(#g)" />
    <path
       d="m 1296.3,218.3 a 1040.9,1040.9 0 0 1 45.012,166.66 l -160.53,106.64 a 867.39,867.39 0 0 1 -11.065,239.78 l 149.87,120.06 a 1040.9,1040.9 0 0 1 -145.38,312.27 l -188.66,-38.054 a 867.39,867.39 0 0 1 -177.03,161.75 l 21.099,191.07 a 1040.9,1040.9 0 0 1 -156.62,73.367 1040.9,1040.9 0 0 1 -166.66,45.01 l -106.64,-160.52 a 867.39,867.39 0 0 1 -239.78,-11.065 l -120.06,149.87 a 1040.9,1040.9 0 0 1 -312.27,-145.38 l 38.054,-188.66 a 867.39,867.39 0 0 1 -161.75,-177.03 l -191.07,21.099 a 1040.9,1040.9 0 0 1 -73.367,-156.62 1040.9,1040.9 0 0 1 -45.01,-166.66 l 160.52,-106.64 a 867.39,867.39 0 0 1 11.067,-239.79 l -149.87,-120.06 a 1040.9,1040.9 0 0 1 145.38,-312.27 l 188.66,38.055 a 867.39,867.39 0 0 1 177.03,-161.75 l -21.098,-191.07 a 1040.9,1040.9 0 0 1 156.62,-73.365 1040.9,1040.9 0 0 1 166.66,-45.012 l 106.64,160.53 a 867.39,867.39 0 0 1 239.78,11.068 l 120.06,-149.87 a 1040.9,1040.9 0 0 1 312.27,145.38 l -38.055,188.66 a 867.39,867.39 0 0 1 161.75,177.02 l 191.07,-21.098 a 1040.9,1040.9 0 0 1 73.365,156.62 z M 807.09,395.86 A 520.44,520.44 0 0 0 140.32,84.21 520.44,520.44 0 0 0 -171.33,750.98 520.44,520.44 0 0 0 495.44,1062.63 520.44,520.44 0 0 0 807.09,395.86 Z"
       id="path22"
       style="fill:url(#h)"
       inkscape:connector-curvature="0" />
  </g>
  <g
     id="g32"
     transform="matrix(0.35798841,0,0,0.34738935,431.27989,655.04608)"
     style="fill-rule:evenodd">
    <path
       d="m -608.1,881.46 c -9.4998,-29.888 -16.817,-60.434 -23.762,-90.976 43.399,-29.988 89.429,-56.499 130.84,-89.347 15.423,-14.945 21.348,-37.425 18.601,-58.352 -0.0437,-68.484 -3.2917,-137.83 10.807,-205.23 3.1364,-23.158 0.14735,-50.204 -19.023,-66.038 -35.724,-37.379 -78.917,-66.238 -118.76,-98.833 25.075,-76.209 59.677,-149.22 102.17,-217.25 51.763,9.4528 102.82,23.313 155.18,29.241 21.878,0.4791 43.063,-10.706 55.705,-28.422 48.745,-51.183 98.852,-102.08 157.56,-141.84 18.615,-15.116 31.982,-39.09 28.024,-63.602 -1.1859,-49.164 -9.267,-97.85 -14.478,-146.61 71.25,-36.704 147.42,-63.369 225.62,-80.751 30.248,43.613 56.657,90.063 89.993,131.52 14.851,15.211 37.049,21.639 57.867,18.565 68.329,-0.81132 137.3,-3.1323 204.56,10.409 22.141,2.8385 48.144,1.4754 63.938,-16.524 39.071,-35.746 68.245,-80.349 101.59,-121.11 76.213,25.047 149.34,59.706 217.32,102.17 -9.3201,51.152 -22.885,101.6 -29.144,153.26 -0.72074,22.712 10.071,45.534 28.876,58.495 51.28,47.882 101.18,98.099 140.92,156.2 14.754,18.226 37.856,31.906 61.972,28.352 49.872,-0.4468 99.167,-9.1204 148.6,-14.372 36.696,71.294 63.406,147.48 80.772,225.68 -43.236,29.863 -89,56.361 -130.4,88.865 -15.758,14.904 -22.946,37.506 -19.648,58.821 0.9964,70.277 2.8032,141.23 -11.26,210.49 -2.7757,23.695 3.9399,50.123 23.604,65.131 35.15,35.184 76.289,63.436 114.78,94.693 -24.954,76.316 -59.63,149.18 -102.12,217.27 -51.945,-9.3379 -103.13,-23.518 -155.66,-29.238 -21.356,-0.2583 -41.999,10.559 -54.515,27.742 -48.137,49.866 -96.282,100.53 -154.08,139.28 -17.844,13.774 -33.955,34.343 -31.681,58.162 -1.4166,52.17 8.7318,103.62 14.099,155.3 -71.403,36.545 -147.54,63.45 -225.75,80.782 -29.657,-42.963 -56.004,-88.391 -88.142,-129.63 -15.345,-16.354 -38.785,-24.528 -60.924,-20.663 -70.281,1.9745 -141.23,2.0927 -210.58,-11.136 -23.737,-2.5717 -50.178,4.4847 -64.823,24.478 -34.193,35.435 -62.647,75.771 -93.636,113.91 -76.314,-24.771 -149.12,-59.596 -217.15,-102.02 9.4054,-51.588 22.904,-102.64 29.339,-154.81 0.47952,-21.795 -11.281,-42.312 -28.34,-55.312 -49.277,-49.131 -101.24,-96.584 -139.36,-155.22 -15.252,-19.761 -39.817,-34.677 -65.507,-30.897 -49.419,0.5317 -98.228,9.0996 -147.25,14.392 -21.59,-43.793 -40.484,-88.91 -56.769,-135.02 z m 376.49,-106.13 c 59.874,164.49 197.65,298.52 364.07,353.08 135.63,45.691 288.1,39.173 419.06,-18.768 122.87,-53.326 226.89,-149.84 286.91,-269.83 67.439,-131.81 83.817,-289.78 40.445,-431.75 -44.251,-150.21 -150.46,-282.06 -290.45,-353.22 -140.32,-73.165 -311.14,-88.018 -460.66,-34.732 -157.99,54.374 -292.01,178.4 -352.66,334.77 -52.875,133.13 -56.811,285.87 -6.7126,420.45 z"
       id="path26"
       style="fill:url(#k)"
       inkscape:connector-curvature="0" />
    <path
       d="m 85.208,-350.53 c -64.375,15.797 -127.32,38.194 -187.01,67.546 5.654,57.879 21.238,117.37 7.0207,175.2 -17.301,40.403 -61.202,57.415 -91.241,86.354 -43.689,36.598 -78.651,82.689 -123.47,117.89 -36.865,19.184 -79.047,4.7877 -117.1,-2.1663 -23.247,-4.7733 -46.304,-10.011 -69.58,-14.543 -35.427,58.574 -64.982,120.83 -87.329,185.62 44.078,36.434 96.106,66.976 127.27,116.44 17.568,39.918 -0.76439,83.154 -2.3485,124.05 -4.9788,57.088 1.6239,115.07 -3.8906,172.26 -11.666,40.799 -52.77,60.895 -85.15,83.149 -19.856,13.112 -39.94,25.877 -59.691,39.148 15.764,66.367 38.587,131.36 68.871,192.72 56.604,-5.3883 114.33,-19.832 171.15,-8.6089 40.4,14.73 58.646,57.054 85.649,87.09 36.629,44.396 81.559,81.092 119.79,123.97 21.833,35.946 9.6881,79.61 1.6343,117.76 -5.0208,24.809 -10.592,49.446 -15.462,74.274 58.621,35.446 120.88,64.919 185.68,87.346 36.805,-44.878 67.768,-97.988 118.87,-128.36 41.468,-16.327 84.952,3.3519 127.26,3.8578 55.666,4.5996 112.39,-2.8171 168.12,3.8769 40.166,12.355 59.501,53.217 81.922,85.136 12.999,19.703 25.592,39.672 38.787,59.247 66.351,-15.757 131.27,-38.539 192.7,-68.853 -5.1753,-56.357 -19.624,-113.72 -8.9961,-170.34 14.275,-40.403 56.451,-58.916 86.37,-85.401 45.413,-37.629 82.918,-83.905 127.63,-122.27 36.56,-20.97 79.839,-6.9458 118.11,0.3334 23.832,4.847 47.558,10.203 71.421,14.902 35.456,-58.634 64.947,-120.95 87.346,-185.64 -44.524,-36.805 -97.613,-67.512 -128.13,-118.25 -16.464,-40.756 2.4667,-83.808 3.4565,-125.26 4.926,-57.07 -3.0266,-115.24 4.7331,-172.3 12.946,-40.221 54.436,-59.048 86.38,-81.668 19.008,-12.532 38.238,-24.728 57.125,-37.442 -14.513,-66.86 -39.483,-131.29 -69.027,-192.85 -56.296,5.4845 -113.7,19.686 -170.23,8.6693 -40.125,-14.076 -58.851,-55.497 -84.701,-85.814 -38.654,-46.783 -87.643,-84.155 -124.7,-132.24 -19.394,-37.741 -3.0436,-80.648 3.567,-119.3 4.5033,-21.928 9.3303,-43.79 13.608,-65.764 -58.753,-35.515 -120.53,-64.959 -185.49,-87.258 -35.974,43.308 -66.211,93.801 -113.54,126.11 -39.217,18.724 -82.682,1.5108 -123.21,-0.79854 -57.555,-5.3216 -115.58,0.3544 -173.19,-3.4473 -41.008,-10.337 -62.531,-50.602 -84.169,-83.193 -13.785,-20.827 -27.112,-41.886 -41.063,-62.59 -1.9139,0.46189 -3.8278,0.92377 -5.7417,1.3857 z m 239.65,316.96 c 212.33,0.57193 419.33,123.11 522.06,308.94 82.426,145.16 100.51,324.85 48.792,483.56 -44.89,142.23 -144.38,266.44 -274.3,339.97 -138.1,80.056 -308.52,103.76 -462.47,60.194 -166.2,-44.766 -311.67,-163.11 -386.03,-318.76 -75.673,-153.47 -82.841,-339.5 -16.336,-497.48 64.493,-158.01 198.25,-286.8 360.14,-341.94 66.676,-23.512 137.46,-35.269 208.16,-34.497 z"
       id="path28"
       style="fill:url(#i)"
       inkscape:connector-curvature="0" />
    <path
       d="m 74.715,-317.98 c -48.798,13.319 -96.851,29.937 -142.82,51.191 -4.2087,10.641 1.7973,23.215 2.008,34.657 6.4017,48.454 13.588,100.63 -7.1279,146.42 -29.114,49.244 -86.035,71.163 -123.28,113.07 -37.664,36.189 -70.038,82.234 -119.58,102.73 -51.852,13.735 -103.56,-6.4119 -154.39,-15.612 -5.5634,-2.9934 -15.283,-2.1388 -15.619,5.7665 -24.01,42.589 -44.847,86.983 -61.982,132.78 4.548,10.538 17.833,15.085 26.069,23.074 38.856,29.781 80.5,62.412 97.953,109.85 13.665,55.694 -11.712,111.32 -7.7291,167.37 -0.78823,53.346 9.2748,110.48 -15.101,160.18 -28.596,44.335 -79.186,65.926 -120.89,95.238 -6.6675,1.9168 -7.6081,9.4524 -3.7918,14.283 12.405,46.904 29.844,92.352 49.988,136.45 10.64,4.2314 23.226,-1.8681 34.67,-2.0626 48.686,-6.4337 100.85,-13.162 146.65,7.8486 50.15,29.855 71.68,88.118 115.05,125.36 36.993,37.736 83.545,71.293 101.52,123.08 11.022,51.306 -9.4011,102.14 -18.312,152.45 -3.2217,6.0819 2.1309,11.156 7.7716,11.777 42.329,23.895 86.468,44.622 132.03,61.574 10.503,-4.5269 15.134,-17.673 23.074,-25.903 29.545,-38.572 61.514,-80.615 108.77,-97.948 56.753,-14.085 113.64,11.463 171.13,7.509 50.274,0.7951 102.49,-7.9233 150.25,10.954 47.116,25.893 69.781,77.501 99.359,119.65 2.0911,6.97 10.108,14.961 17.36,9.0814 46.681,-12.742 92.384,-29.133 136.37,-49.315 4.2166,-10.668 -1.9774,-23.262 -2.1424,-34.738 -6.4191,-48.274 -12.285,-99.262 6.9602,-145.45 30.45,-52.082 90.913,-74.076 129.12,-119.2 36.304,-35.944 68.452,-81.323 118.67,-98.638 51.968,-11.567 103.64,8.6022 154.22,17.939 6.0842,3.2031 11.103,-2.1506 11.688,-7.7824 23.88,-42.326 44.537,-86.481 61.553,-132.01 -4.5111,-10.566 -17.894,-15.059 -26.074,-23.094 -38.65,-29.435 -79.598,-61.856 -97.566,-108.38 -14.707,-57.802 12.084,-115.43 7.3618,-173.73 0.4693,-50.57 -8.139,-103.81 12.805,-151.52 26.516,-45.11 76.895,-66.367 117.48,-96.101 6.4826,-1.4795 14.935,-7.8858 9.8596,-15.132 -12.766,-47.425 -29.334,-93.844 -49.852,-138.47 -10.677,-4.2046 -23.287,1.8371 -34.766,2.049 -48.236,6.4332 -99.721,13.102 -145.79,-6.9947 -50.648,-29.747 -72.696,-87.992 -115.91,-125.92 -34.82,-36.015 -78.582,-66.839 -99.299,-113.66 -15.433,-50.402 4.0414,-103.57 13.405,-154.09 4.1113,-7.1136 3.5779,-19.475 -6.6299,-20.501 -41.979,-23.56 -85.723,-43.994 -130.81,-60.87 -10.512,4.5483 -15.018,17.827 -23.006,26.044 -29.421,38.519 -61.732,78.79 -107.76,97.34 -57.676,15.116 -115.79,-11.972 -174.12,-7.1906 -51.29,-0.41674 -106.02,8.9712 -154.02,-14.021 -44.949,-28.196 -66.685,-79.028 -96.275,-120.76 -1.0322,-3.8071 -4.2658,-7.2675 -8.5059,-6.637 z m 245.52,254.82 c 249.31,-1.6284 493.14,160.32 585.56,392.63 83.055,198.71 57.988,439.96 -70.611,614.4 -110.66,155.13 -293.67,257.16 -484.17,265 -192.47,10.508 -388.94,-71.927 -514.32,-219.37 -111.19,-127.88 -168.23,-301.33 -152.29,-469.72 14.402,-173.93 103.14,-343.11 243.59,-448.89 111.29,-85.923 251.63,-134.69 392.23,-134.03 z"
       id="path30"
       style="fill:url(#j)"
       inkscape:connector-curvature="0" />
  </g>
</svg>
