<?xml version="1.0" standalone="no"?>
<!DOCTYPE svg PUBLIC "-//W3C//DTD SVG 20010904//EN"
 "http://www.w3.org/TR/2001/REC-SVG-20010904/DTD/svg10.dtd">
<svg version="1.0" xmlns="http://www.w3.org/2000/svg"
 width="1088.000000pt" height="1280.000000pt" viewBox="0 0 1088.000000 1280.000000"
 preserveAspectRatio="xMidYMid meet">
<metadata>
Created by potrace 1.15, written by Peter Selinger 2001-2017
</metadata>
<g transform="translate(0.000000,1280.000000) scale(0.100000,-0.100000)"
fill="#8bc34a" stroke="none">
<path d="M6300 12784 c-102 -22 -176 -56 -437 -200 -388 -216 -535 -281 -683
-305 -139 -22 -241 20 -396 162 -234 215 -398 289 -644 289 -262 0 -499 -105
-847 -377 -65 -51 -169 -133 -232 -182 -153 -120 -218 -155 -274 -146 -73 12
-147 35 -347 112 -358 137 -495 173 -667 173 -194 0 -327 -53 -459 -185 -66
-66 -89 -97 -128 -175 -25 -52 -58 -140 -73 -195 -24 -91 -26 -117 -27 -285 0
-169 3 -194 26 -282 79 -291 270 -542 585 -766 125 -89 310 -196 539 -310 366
-183 449 -213 624 -227 182 -15 380 23 763 144 306 98 366 113 436 115 l55 1
14 -45 c38 -118 20 -573 -28 -749 -94 -337 -382 -612 -954 -911 -74 -39 -348
-175 -608 -301 -626 -304 -844 -422 -1125 -610 -502 -336 -859 -720 -1087
-1167 -169 -335 -246 -598 -308 -1062 -19 -140 -16 -666 6 -915 105 -1240 455
-2158 1091 -2866 716 -796 1781 -1272 3230 -1443 824 -98 1726 -98 2425 -1
1108 154 1993 507 2690 1074 140 113 435 409 544 546 94 119 265 371 338 500
278 491 446 1053 515 1720 21 212 24 769 5 945 -64 567 -194 1006 -425 1440
-277 518 -722 1015 -1302 1452 -186 140 -259 192 -465 328 -192 128 -284 187
-780 500 -663 419 -955 651 -1174 934 -75 97 -236 330 -236 342 0 5 97 10 215
11 340 3 503 32 786 142 227 87 313 110 728 196 402 83 584 176 831 424 255
256 351 450 337 684 -12 205 -115 367 -310 491 -181 116 -422 170 -752 170
-273 1 -466 -29 -711 -110 -76 -26 -119 -35 -138 -30 -30 8 -114 115 -197 253
-112 188 -185 301 -240 374 -200 264 -463 381 -729 323z"/>
</g>
</svg>
